<svg width="73" height="73" viewBox="0 0 73 73" fill="none" xmlns="http://www.w3.org/2000/svg">
<title>Logo da Papelaria GB</title>
<desc>Created using Figma</desc>
<g clip-path="url(#clip0_1_7)">
<circle cx="36.5" cy="36.5" r="36.5" fill="#D3DB2D"/>
<path d="M50.1371 15.0472C45.2539 17.7233 43.893 19.0031 38.2093 26.4206C35.8478 29.5039 33.8865 32.0345 33.8064 32.0345C33.7264 32.0345 33.0459 30.9292 32.2454 29.5621C30.8845 27.1768 30.8445 27.0605 31.4449 26.0133C32.2854 24.5589 31.9252 23.4245 30.044 21.7665C29.1634 21.0102 28.1627 19.7594 27.8025 19.0031C27.4423 18.2468 26.962 17.316 26.7618 16.9379L26.3616 16.2398L25.4009 16.9088C23.1194 18.4505 21.9987 22.3482 23.1995 24.6171C23.7198 25.6352 25.481 27.0605 26.5617 27.3514C27.1221 27.5259 27.7625 28.6603 29.0833 31.86L30.8445 36.165L25.7612 42.8843C22.9994 46.6076 20.0775 50.4472 19.357 51.4362C17.5958 53.7342 17.5558 54.9268 19.1969 56.2939C20.7179 57.5156 23.2796 58.3301 25.0807 58.0683C26.6017 57.8646 28.2028 56.3812 33.0059 50.5636C34.687 48.4983 36.1279 46.8694 36.208 46.9276C36.248 46.9857 37.1686 48.4401 38.2093 50.2145C40.4908 54.0832 43.5728 58.3882 44.3733 58.8827C44.8537 59.1736 44.8937 58.9991 44.6535 57.4865C44.3733 55.5376 42.2119 49.4291 40.4908 45.4732L39.33 42.8843L43.3327 37.823C50.7375 28.3985 52.8189 25.2861 53.4192 22.8137C54.2198 19.6431 54.1797 15.4835 53.3792 14.6399C53.059 14.2909 52.6187 14 52.4186 14C52.2185 14 51.2178 14.4654 50.1371 15.0472ZM50.5774 17.0542C51.0177 17.2869 51.7381 17.4906 52.1384 17.4906C52.8989 17.4906 52.9389 17.636 52.6588 19.8758C52.2585 23.8608 51.2979 25.257 50.3372 23.3081C49.937 22.4355 49.8169 22.3773 48.456 22.5519C47.0951 22.6973 46.935 22.6391 46.5347 21.8828C46.2145 21.2429 45.8143 21.0102 44.9737 20.9229C43.853 20.8357 43.853 20.8357 46.5748 18.7122C48.0958 17.5778 49.4166 16.6179 49.5767 16.6179C49.6968 16.6179 50.1771 16.8215 50.5774 17.0542ZM45.5341 22.6682C45.6942 23.5118 46.975 24.0063 47.9757 23.599C49.0564 23.1918 49.0964 23.2209 49.3766 24.0353C49.5367 24.4426 49.7769 24.7625 49.937 24.7625C50.0971 24.7625 50.4573 24.8789 50.7775 25.0243C51.2178 25.228 50.8976 25.8388 49.2165 28.1367C44.8136 34.158 39.1299 41.3427 38.7697 41.3427C37.809 41.3427 38.6896 39.801 41.8517 35.8741C45.9344 30.8128 49.3366 26.0133 49.0964 25.5479C49.0164 25.3734 47.6155 27.1187 45.9744 29.4166C44.2933 31.7437 41.8117 35.0597 40.4107 36.7759L37.8491 39.9465L37.3287 38.8411C36.8084 37.7649 36.8484 37.7358 39.9304 33.6635C43.6529 28.8349 46.6548 24.2681 46.2946 24.0063C46.1745 23.8899 44.7736 25.6934 43.2126 27.9913C41.6916 30.2893 39.5302 33.2853 38.4495 34.6234L36.4882 37.0958L35.8478 35.9905C35.4875 35.3797 35.2073 34.827 35.2073 34.7688C35.2073 34.7106 37.0886 32.0636 39.4101 28.893C41.7316 25.7224 43.6128 23.0173 43.6128 22.9009C43.6128 22.2319 42.4921 23.5699 38.9698 28.3985C36.8484 31.3655 34.8871 33.7798 34.687 33.7798C34.1266 33.7798 34.5269 33.1981 38.2894 28.2531C43.3727 21.592 43.1325 21.7956 44.3733 21.9119C45.0938 21.9701 45.454 22.2028 45.5341 22.6682ZM30.9646 39.3647C30.6043 39.8883 29.1634 41.8663 27.7225 43.7279C26.2815 45.6186 25.2008 47.2766 25.2809 47.4802C25.3609 47.6548 26.9219 45.7931 28.8032 43.3498L32.1654 38.9284L32.6857 40.0628C33.206 41.1391 33.166 41.2263 31.3248 43.5243C28.0026 47.6257 27.5223 48.3238 27.8826 48.3238C28.0827 48.3238 29.4036 46.8985 30.8045 45.1532C33.2461 42.1862 33.4462 42.0117 33.8865 42.5935C34.687 43.6406 34.5269 44.106 32.4055 46.6949C30.1641 49.4873 29.6437 50.2727 30.3242 49.9527C30.5643 49.8655 31.685 48.5565 32.8458 47.1021C34.687 44.8042 34.9672 44.5424 35.2474 45.0659C35.5276 45.5604 35.1273 46.2585 33.4462 48.2656C31.605 50.4472 31.2047 50.7963 30.3642 50.709C28.9232 50.5345 25.3609 49.1964 24.3603 48.4401L23.5197 47.7711L26.2015 44.1933C30.8845 37.9394 31.3648 37.3867 31.5249 37.9103C31.605 38.1721 31.3648 38.8411 30.9646 39.3647ZM23.7599 51.0872C24.4803 51.4653 26.0013 52.1052 27.1621 52.4834L29.2835 53.1524L27.5223 55.0431C25.9213 56.7011 25.6011 56.9047 24.2802 56.992C22.359 57.1084 20.2776 56.2066 19.5971 54.9849C19.1168 54.1705 19.1969 53.9087 20.3176 52.2216C21.0381 51.2035 21.7986 50.36 22.0387 50.36C22.2389 50.36 23.0394 50.6799 23.7599 51.0872Z" fill="black"/>
</g>
<defs>
<clipPath id="clip0_1_7">
<rect width="73" height="73" fill="white"/>
</clipPath>
</defs>
</svg>
